<svg width="150" height="150" viewBox="0 0 150 150" fill="none" xmlns="http://www.w3.org/2000/svg">
<g clip-path="url(#clip0_28_754)">
<rect width="150" height="150" rx="75" fill="#A5A5A5"/>
<path d="M125.625 150V131.25C125.625 121.304 122.958 111.766 118.211 104.734C113.464 97.7009 107.026 93.75 100.312 93.75H49.6875C42.9742 93.75 36.5359 97.7009 31.7889 104.734C27.0418 111.766 24.375 121.304 24.375 131.25V150" fill="white"/>
<path d="M125.625 150V131.25C125.625 121.304 122.958 111.766 118.211 104.734C113.464 97.7009 107.026 93.75 100.312 93.75H49.6875C42.9742 93.75 36.5359 97.7009 31.7889 104.734C27.0418 111.766 24.375 121.304 24.375 131.25V150" stroke="white" stroke-width="7" stroke-linecap="round" stroke-linejoin="round"/>
<path d="M75 68.75C88.8071 68.75 100 57.5571 100 43.75C100 29.9429 88.8071 18.75 75 18.75C61.1929 18.75 50 29.9429 50 43.75C50 57.5571 61.1929 68.75 75 68.75Z" fill="white" stroke="white" stroke-width="7" stroke-linecap="round" stroke-linejoin="round"/>
</g>
<rect x="3.5" y="3.5" width="143" height="143" rx="71.5" stroke="#757575" stroke-width="7"/>
<defs>
<clipPath id="clip0_28_754">
<rect width="150" height="150" rx="75" fill="white"/>
</clipPath>
</defs>
</svg>
